<?xml version="1.0" encoding="UTF-8"?>
<svg width="24px" height="22px" viewBox="0 0 24 22" version="1.1" xmlns="http://www.w3.org/2000/svg" xmlns:xlink="http://www.w3.org/1999/xlink">
    <!-- Generator: Sketch 41.2 (35397) - http://www.bohemiancoding.com/sketch -->
    <title>添加照片</title>
    <desc>Created with Sketch.</desc>
    <defs></defs>
    <g id="Symbols" stroke="none" stroke-width="1" fill="none" fill-rule="evenodd">
        <g id="类型1" transform="translate(-40.000000, -257.000000)" fill="#666666">
            <g id="Group-2">
                <g id="Group" transform="translate(20.000000, 236.000000)">
                    <path d="M41.4285722,23.5714494 L31.9999246,23.5714494 C31.9999246,22.8570824 31.7500168,22.2499482 31.2499859,21.7499387 C30.7499764,21.2499508 30.1428637,21 29.4286476,21 L27.7142187,21 C26.9999811,21 26.39289,21.2499292 25.892859,21.7499387 C25.3928496,22.2499481 25.1429203,22.8570824 25.1429203,23.5714494 L22.5714709,23.5714494 C21.857104,23.5714494 21.2499697,23.8214002 20.7499387,24.3214096 C20.2499508,24.8213975 20,25.4285318 20,26.1429418 L20,39.8571228 C20,40.5715113 20.2499292,41.178624 20.7499387,41.6786119 C21.2499697,42.1785998 21.8570609,42.4285506 22.5714709,42.4285506 L41.4285506,42.4285506 C42.1428098,42.4285506 42.749901,42.1785998 43.2499104,41.6786119 C43.7499198,41.178624 44,40.5714898 44,39.8571228 L44,26.1429203 C44,25.4285318 43.7499198,24.821376 43.2499104,24.3213881 C42.749901,23.8214002 42.1428313,23.5714494 41.4285722,23.5714494 L41.4285722,23.5714494 Z M31.9999246,38.1428664 C30.589149,38.1428664 29.3794293,37.6383081 28.370787,36.6291052 C27.3622956,35.6200317 26.857651,34.4102689 26.8571552,32.9999246 C26.8565084,31.5897742 27.3611099,30.3799467 28.370787,29.3708085 C29.380615,28.3617566 30.5902916,27.8571768 31.9999246,27.8571768 C33.4097515,27.8571768 34.619385,28.3617566 35.6290837,29.3708085 C36.6387824,30.3799683 37.1433622,31.5897742 37.1428664,32.9999246 C37.142349,34.4102689 36.637726,35.6200317 35.6290837,36.6291052 C34.6205923,37.638265 33.4109157,38.1428664 31.9999246,38.1428664 L31.9999246,38.1428664 Z M40.1429014,29.5714332 C39.7857395,29.5714332 39.4820215,29.4462638 39.2316826,29.1960758 C38.9813653,28.9457369 38.8563036,28.642062 38.8563036,28.284857 C38.8563036,27.9276519 38.9813653,27.623977 39.2316826,27.3737459 C39.4819999,27.1234286 39.7856964,26.9982592 40.1429014,26.9982592 C40.4999771,26.9982592 40.8036305,27.1234502 41.0539909,27.3737459 C41.3043082,27.6239339 41.4294992,27.9276304 41.4294992,28.284857 C41.4294992,28.6420404 41.3043083,28.9457154 41.0539909,29.1960758 C40.803652,29.4462638 40.4999555,29.5714332 40.1429014,29.5714332 L40.1429014,29.5714332 Z" id="添加照片"></path>
                </g>
            </g>
        </g>
    </g>
</svg>