<?xml version="1.0" encoding="UTF-8"?>
<svg width="15px" height="15px" viewBox="0 0 15 15" version="1.1" xmlns="http://www.w3.org/2000/svg" xmlns:xlink="http://www.w3.org/1999/xlink">
    <!-- Generator: Sketch 41.2 (35397) - http://www.bohemiancoding.com/sketch -->
    <title>元素/关闭/未点击</title>
    <desc>Created with Sketch.</desc>
    <defs></defs>
    <g id="Symbols" stroke="none" stroke-width="1" fill="none" fill-rule="evenodd">
        <g id="类型1B" transform="translate(-77.000000, -229.000000)">
            <g id="Group-2">
                <g id="add-photo" transform="translate(20.000000, 229.000000)">
                    <g id="元素/关闭/未点击" transform="translate(57.000000, 0.000000)">
                        <ellipse id="Oval-" fill="#F00000" cx="7.5" cy="7.5" rx="7.5" ry="7.5"></ellipse>
                        <path d="M7,7 L3.50966585,7 C3.22247314,7 3,7.22385763 3,7.5 C3,7.76806641 3.22818517,8 3.50966585,8 L7,8 L7,11.4903342 C7,11.7775269 7.22385763,12 7.5,12 C7.76806641,12 8,11.7718148 8,11.4903342 L8,8 L11.4903342,8 C11.7775269,8 12,7.77614237 12,7.5 C12,7.23193359 11.7718148,7 11.4903342,7 L8,7 L8,3.50966585 C8,3.22247314 7.77614237,3 7.5,3 C7.23193359,3 7,3.22818517 7,3.50966585 L7,7 Z" id="Rectangle-" fill="#FFFFFF" transform="translate(7.500000, 7.500000) rotate(46.000000) translate(-7.500000, -7.500000) "></path>
                    </g>
                </g>
            </g>
        </g>
    </g>
</svg>