<?xml version="1.0" encoding="UTF-8"?>
<svg width="16px" height="15px" viewBox="0 0 16 15" version="1.1" xmlns="http://www.w3.org/2000/svg" xmlns:xlink="http://www.w3.org/1999/xlink">
    <!-- Generator: Sketch 41.2 (35397) - http://www.bohemiancoding.com/sketch -->
    <title>内容</title>
    <desc>Created with Sketch.</desc>
    <defs></defs>
    <g id="Symbols" stroke="none" stroke-width="1" fill="none" fill-rule="evenodd">
        <g id="外出详细" transform="translate(-40.000000, -139.000000)" fill="#0E87EF">
            <g id="Group-3">
                <g id="Group-2" transform="translate(40.000000, 20.000000)">
                    <path d="M7.99407639,119 C3.55746038,119 0.0215107757,122.269085 0.0215107757,126.305405 C0.0215107757,127.57301 0.388448934,128.773898 0.988893208,129.841355 C1.08896725,130.008145 1.12232527,130.208293 1.05560925,130.408441 L0.0215107757,133.243872 C-0.0785632644,133.510737 0.188300854,133.744243 0.455164972,133.677527 L3.32395427,132.576712 C3.49074435,132.509996 3.69089243,132.543354 3.89104052,132.643428 C5.09192907,133.310588 6.52632372,133.710885 8.06079241,133.710885 C12.4306924,133.677527 16,130.441799 16,126.372121 C15.966642,122.269085 12.3973344,119 7.99407637,119 L7.99407639,119 Z M3.99111458,127.673084 C3.25723825,127.673084 2.65679397,127.07264 2.65679397,126.338763 C2.65679397,125.604887 3.25723825,125.004443 3.99111458,125.004443 C4.72499091,125.004443 5.32543519,125.604887 5.32543519,126.338763 C5.32543519,127.07264 4.72499091,127.673084 3.99111458,127.673084 Z M7.99407639,127.673084 C7.26020005,127.673084 6.65975578,127.07264 6.65975578,126.338763 C6.65975578,125.604887 7.26020005,125.004443 7.99407639,125.004443 C8.72795272,125.004443 9.32839699,125.604887 9.32839699,126.338763 C9.32839699,127.07264 8.72795272,127.673084 7.99407639,127.673084 Z M11.9970382,127.673084 C11.2631619,127.673084 10.6627176,127.07264 10.6627176,126.338763 C10.6627176,125.604887 11.2631619,125.004443 11.9970382,125.004443 C12.7309145,125.004443 13.3313588,125.604887 13.3313588,126.338763 C13.3313588,127.07264 12.7309145,127.673084 11.9970382,127.673084 Z" id="内容"></path>
                </g>
            </g>
        </g>
    </g>
</svg>