<?xml version="1.0" encoding="UTF-8"?>
<svg width="14px" height="16px" viewBox="0 0 14 16" version="1.1" xmlns="http://www.w3.org/2000/svg" xmlns:xlink="http://www.w3.org/1999/xlink">
    <!-- Generator: Sketch 41.2 (35397) - http://www.bohemiancoding.com/sketch -->
    <title>地址</title>
    <desc>Created with Sketch.</desc>
    <defs></defs>
    <g id="Symbols" stroke="none" stroke-width="1" fill="none" fill-rule="evenodd">
        <g id="外出详细" transform="translate(-41.000000, -50.000000)" fill="#0E87EF">
            <g id="Group-3">
                <g id="Group-2" transform="translate(40.000000, 20.000000)">
                    <path d="M7.5882353,46 C7.5882353,46 1,40.2268235 1,36.5882353 C1,32.9496471 3.94964706,30 7.5882353,30 C11.2268235,30 14.1764706,32.9496471 14.1764706,36.5882353 C14.1764706,40.2268235 7.5882353,46 7.5882353,46 Z M7.5882353,32.8235294 C5.50917647,32.8235294 3.82352942,34.5091765 3.82352942,36.5882353 C3.82352942,38.6672941 5.50917647,40.3529412 7.5882353,40.3529412 C9.66729412,40.3529412 11.3529412,38.6672941 11.3529412,36.5882353 C11.3529412,34.5091765 9.66729412,32.8235294 7.5882353,32.8235294 Z M7.5882353,38 C6.80847059,38 6.17647059,37.368 6.17647059,36.5882353 C6.17647059,35.8084706 6.80847059,35.1764706 7.5882353,35.1764706 C8.368,35.1764706 9,35.8084706 9,36.5882353 C9,37.368 8.368,38 7.5882353,38 Z" id="地址"></path>
                </g>
            </g>
        </g>
    </g>
</svg>