<?xml version="1.0" encoding="UTF-8"?>
<svg width="16px" height="16px" viewBox="0 0 16 16" version="1.1" xmlns="http://www.w3.org/2000/svg" xmlns:xlink="http://www.w3.org/1999/xlink">
    <!-- Generator: Sketch 41.2 (35397) - http://www.bohemiancoding.com/sketch -->
    <title>客户</title>
    <desc>Created with Sketch.</desc>
    <defs></defs>
    <g id="Symbols" stroke="none" stroke-width="1" fill="none" fill-rule="evenodd">
        <g id="外出详细" transform="translate(-40.000000, -461.000000)" fill="#0E87EF">
            <g id="Group-3">
                <g id="Group-2-Copy-2" transform="translate(40.000000, 406.000000)">
                    <path d="M8,71 C3.58151983,71 0,67.4185456 0,63 C0,58.5814544 3.58145435,55 8,55 C12.4185456,55 16,58.5814544 16,63 C16,67.4185456 12.4185456,71 8,71 Z M8,55.4997831 C3.85811679,55.4997831 0.499995908,58.8578385 0.499995908,62.9997872 C0.499995908,67.1417359 3.85805132,70.4997913 8,70.4997913 C12.1419487,70.4997913 15.5000041,67.1417359 15.5000041,62.9997872 C15.5000041,58.8578385 12.1419487,55.4997831 8,55.4997831 L8,55.4997831 Z M8.97552073,66.9999345 L7.02400458,66.9999345 C5.35357041,66.9999345 3.99944347,66.9989851 3.99944347,66.3436019 L3.99944347,66.1567214 C3.99944347,64.5512051 5.35348856,63.2507182 7.02400458,63.2507182 L8.97552073,63.2507182 C10.6459549,63.2507182 12.0000818,64.5517453 12.0000818,66.1567214 L12.0000818,66.3436019 C12.0000818,66.9761018 10.6460367,66.9999345 8.97552073,66.9999345 Z M7.90206654,62.4998568 C6.60901093,62.4998568 5.56048615,61.492319 5.56048615,60.2498097 C5.56048615,59.0073004 6.60901093,57.9997627 7.90206654,57.9997627 C9.19512215,57.9997627 10.2436469,59.0073004 10.2436469,60.2498097 C10.2436469,61.4923354 9.19559684,62.4998568 7.90206654,62.4998568 Z" id="客户"></path>
                </g>
            </g>
        </g>
    </g>
</svg>