<?xml version="1.0" encoding="UTF-8"?>
<svg width="23px" height="24px" viewBox="0 0 23 24" version="1.1" xmlns="http://www.w3.org/2000/svg" xmlns:xlink="http://www.w3.org/1999/xlink">
    <!-- Generator: Sketch 41.2 (35397) - http://www.bohemiancoding.com/sketch -->
    <title>足迹-normal</title>
    <desc>Created with Sketch.</desc>
    <defs></defs>
    <g id="Symbols" stroke="none" stroke-width="1" fill="none" fill-rule="evenodd">
        <g id="nav1" transform="translate(-302.000000, -7.000000)" fill="#7F8389">
            <g id="downnav">
                <path d="M309.451833,10.7259163 C309.451833,11.7571855 309.088664,12.6359889 308.362326,13.3623264 C307.635989,14.0886638 306.757186,14.4518326 305.725916,14.4518326 C304.694647,14.4518326 303.815844,14.0886639 303.089506,13.3623264 C302.363169,12.6359889 302,11.7571855 302,10.7259163 C302,9.69464708 302.363169,8.81584372 303.089506,8.08950622 C303.815844,7.36316872 304.694647,6.99999998 305.725916,7 C306.757186,7.00000002 307.635989,7.36316876 308.362326,8.08950622 C309.088664,8.81584369 309.451833,9.69464705 309.451833,10.7259163 Z M314.489955,8.86258323 C314.489955,9.37046959 314.306496,9.80787171 313.939578,10.1747896 C313.572661,10.5417075 313.131259,10.7251665 312.615375,10.7251665 C312.09949,10.7251665 311.662088,10.5417075 311.303168,10.1747896 C310.944249,9.80787171 310.764539,9.37046959 310.764039,8.86258323 C310.763539,8.35469688 310.943249,7.91729475 311.303168,7.55037685 C311.663088,7.18345895 312.10049,7 312.615375,7 C313.13026,7 313.571661,7.18345895 313.939578,7.55037685 C314.307496,7.91729475 314.490955,8.35469688 314.489955,8.86258323 Z M319.878999,9.31998088 C319.878999,9.83536555 319.69929,10.2767668 319.33987,10.6441846 C318.98045,11.0116024 318.543048,11.1950613 318.027664,11.1945614 C317.512279,11.1940615 317.070878,11.0106026 316.70346,10.6441846 C316.336042,10.2777666 316.152583,9.83636533 316.153083,9.31998088 C316.153583,8.80359644 316.337042,8.36619431 316.70346,8.0077745 C317.069878,7.64935469 317.511279,7.4696449 318.027664,7.46864513 C318.544048,7.46764536 318.98145,7.64735515 319.33987,8.0077745 C319.69829,8.36819385 319.878,8.80559598 319.878999,9.31998088 L319.878999,9.31998088 Z M324.261019,11.7569356 C324.261019,12.2723203 324.07756,12.7097224 323.710642,13.069142 C323.343724,13.4285615 322.902323,13.6082713 322.386438,13.6082713 C321.870554,13.6082713 321.433152,13.4285615 321.074232,13.069142 C320.715312,12.7097224 320.535602,12.2723203 320.535103,11.7569356 C320.534603,11.2415509 320.714313,10.8001497 321.074232,10.4327319 C321.434151,10.0653141 321.871554,9.88185516 322.386438,9.88235504 C322.901323,9.88285493 323.342724,10.0663139 323.710642,10.4327319 C324.07856,10.7991499 324.262019,11.2405511 324.261019,11.7569356 L324.261019,11.7569356 Z M307.787955,16.537116 C307.834944,16.4591334 307.893431,16.3419097 307.963416,16.1854447 C308.0334,16.0289797 308.216859,15.7555409 308.513792,15.3651282 C308.810726,14.9747156 309.154399,14.615296 309.544812,14.2868695 C309.935224,13.958443 310.485851,13.6382646 311.196692,13.3263344 C311.907533,13.0144042 312.684609,12.8034514 313.527921,12.693476 L313.785863,12.693476 C313.879842,12.693476 314.090795,12.7012243 314.418721,12.7167208 C314.746648,12.7322173 315.070825,12.7674595 315.391254,12.8224472 C315.711682,12.8774349 316.098345,12.9711639 316.551244,13.1036343 C317.004143,13.2361046 317.429797,13.4000679 317.828208,13.5955242 C318.226619,13.7909805 318.640526,14.056671 319.06993,14.3925958 C319.499334,14.7285207 319.881999,15.1074359 320.217924,15.5293415 C320.553848,15.9512471 320.85853,16.4706309 321.131969,17.0874929 C321.405408,17.7043548 321.604613,18.3799536 321.729585,19.1142893 C321.870054,19.8641215 321.952036,20.6724407 321.97553,21.5392467 C321.999025,22.4060528 321.928791,23.3590895 321.764827,24.398357 C321.600864,25.4376244 321.335174,26.3906612 320.967756,27.2574672 C320.600338,28.1242733 320.049711,28.8976002 319.315875,29.5774481 C318.58204,30.257296 317.699487,30.7064455 316.668218,30.9248966 C316.449267,30.9873826 316.172079,31.0108774 315.836654,30.9953808 C315.501229,30.9798843 315.149808,30.9486413 314.78239,30.9016518 C314.414972,30.8546623 314.051803,30.7414377 313.692884,30.5619778 C313.333964,30.3825179 313.017535,30.167816 312.743596,29.9178719 C312.469657,29.6679279 312.266453,29.3282539 312.133982,28.8988499 C312.001512,28.469446 311.974268,27.9813052 312.052251,27.4344276 C312.083744,27.2469696 312.169724,26.9110447 312.310193,26.4266531 C312.450662,25.9422615 312.556138,25.5203559 312.626622,25.1609363 C312.697106,24.8015168 312.697106,24.375862 312.626622,23.8839721 C312.556138,23.3920822 312.364681,22.9506809 312.052251,22.5597684 C311.927279,22.3878069 311.692831,22.2043479 311.348908,22.0093915 C311.004985,21.8144352 310.653564,21.6309762 310.294644,21.4590147 C309.935724,21.2870532 309.55306,21.0606038 309.146651,20.7796667 C308.740242,20.4987296 308.416064,20.1823004 308.174118,19.8303791 C307.932173,19.4784579 307.752463,19.0215601 307.634989,18.4596858 C307.517515,17.8978116 307.568254,17.2572049 307.787205,16.5378659 L307.787955,16.537116 Z" id="足迹-normal"></path>
            </g>
        </g>
    </g>
</svg>