<?xml version="1.0" encoding="UTF-8"?>
<svg width="16px" height="16px" viewBox="0 0 16 16" version="1.1" xmlns="http://www.w3.org/2000/svg" xmlns:xlink="http://www.w3.org/1999/xlink">
    <!-- Generator: Sketch 41.2 (35397) - http://www.bohemiancoding.com/sketch -->
    <title>事由</title>
    <desc>Created with Sketch.</desc>
    <defs></defs>
    <g id="Symbols" stroke="none" stroke-width="1" fill="none" fill-rule="evenodd">
        <g id="外出详细" transform="translate(-40.000000, -109.000000)" fill="#0E87EF">
            <g id="Group-3">
                <g id="Group-2" transform="translate(40.000000, 20.000000)">
                    <path d="M15.3711405,93.8859117 C14.968206,92.933231 14.3914289,92.0777208 13.656843,91.343135 C12.9222792,90.6085712 12.0667471,90.0317721 11.1140883,89.6288375 C10.1275584,89.2115627 9.07981849,89 7.99998901,89 C6.92015952,89 5.87244163,89.2115847 4.88591174,89.6288375 C3.93323098,90.0317941 3.07772081,90.6085712 2.34313499,91.343135 C1.60854917,92.0777208 1.03177208,92.933231 0.628837491,93.8859117 C0.211562664,94.8724416 0,95.9201815 0,96.999989 C0,98.0798185 0.211584652,99.1275364 0.628837491,100.114066 C1.03179407,101.066747 1.60854917,101.922279 2.34313499,102.656843 C3.07772081,103.391429 3.93323098,103.968206 4.88591174,104.371141 C5.87244163,104.788437 6.92018153,105 7.99998901,105 C9.07979648,105 10.1275364,104.788437 11.1140883,104.371141 C12.0667471,103.968206 12.9222792,103.391429 13.656843,102.656843 C14.3914289,101.922279 14.968206,101.066747 15.3711405,100.114066 C15.7884374,99.1275364 16,98.0798185 16,96.999989 C16,95.9201815 15.7884374,94.8724417 15.3711405,93.8859117 Z M7.99998901,104.208251 C4.02536486,104.208251 0.791770856,100.974635 0.791770856,97.000011 C0.791770856,93.0253869 4.02536486,89.7917929 7.99998901,89.7917929 C11.9746132,89.7917929 15.2082072,93.0253869 15.2082072,97.000011 C15.2082072,100.974635 11.9746132,104.208251 7.99998901,104.208251 Z M9.55210093,94.1921816 C9.33946057,94.3897119 9.08349153,94.5329605 8.78410586,94.5329605 C8.48472018,94.5329605 8.22773941,94.3897119 8.0133615,94.1921816 C7.79900559,93.9941234 7.69180562,93.7328538 7.69180562,93.4518333 C7.69180562,93.1709668 7.79900557,92.9085095 8.0133615,92.7087137 C8.22773943,92.5091379 8.48472018,92.3871578 8.78410586,92.3871578 C9.08349153,92.3871578 9.33943856,92.4869677 9.55210093,92.6867194 C9.76460932,92.8863392 9.87073157,93.1709448 9.87073157,93.4518113 C9.87075358,93.7328538 9.76460935,93.9941234 9.55210093,94.1921816 Z M9.56103061,101.304769 C9.17023684,101.458641 9.00055124,101.410187 8.76763219,101.491258 C8.53469114,101.572351 8.26431588,101.612842 7.95635245,101.612842 C7.48259639,101.612842 7.11450071,101.496735 6.85202138,101.266543 C6.58941009,101.035031 6.30476055,100.742332 6.30476055,100.386773 C6.30476055,100.369925 6.26664452,99.6989909 6.4876867,99.2403889 L7.16603324,97.6533721 C7.20984577,97.4876234 7.24659817,97.3306285 7.27615842,97.1827392 C7.3057187,97.034674 7.32049881,97.0178483 7.32049881,96.8955384 C7.32049881,96.6744742 7.18030749,96.5203825 7.08927331,96.4338351 C6.99823913,96.3468919 6.61107443,96.3032773 6.35358778,96.3032773 C6.22698892,96.3032773 6.09728884,96.3231821 5.96466353,96.3623978 C5.83206022,96.4019215 5.68898765,96.4395316 5.59399451,96.4750744 L5.62971316,95.8237368 C5.94992738,95.6933549 6.59334704,95.5109126 6.88571656,95.4180089 C7.17824002,95.3255891 7.45479569,95.2788953 7.71586737,95.2788953 C8.18619233,95.2788953 8.66590881,95.3926056 8.92082212,95.6195202 C9.17560347,95.8464128 9.49267251,96.212639 9.49267251,96.575918 C9.49267251,96.6508084 9.48374285,96.7829058 9.46601549,96.9725402 C9.44833212,97.1621746 9.41573664,97.3358412 9.36829506,97.4936719 L8.57454473,99.0748602 C8.53502108,99.2129841 8.49930241,99.3709907 8.46771869,99.5482423 C8.43593701,99.7262198 8.42012313,100.094469 8.42012313,100.185526 C8.42012313,100.414684 8.47132574,100.570645 8.5738629,100.653123 C8.67642207,100.736218 8.78276424,100.872648 9.03508224,100.872648 C9.37742267,100.872648 9.35666011,100.930009 9.69145651,100.77198 L9.56103061,101.304769 Z" id="事由"></path>
                </g>
            </g>
        </g>
    </g>
</svg>