<?xml version="1.0" encoding="UTF-8"?>
<svg width="16px" height="16px" viewBox="0 0 16 16" version="1.1" xmlns="http://www.w3.org/2000/svg" xmlns:xlink="http://www.w3.org/1999/xlink">
    <!-- Generator: Sketch 41.2 (35397) - http://www.bohemiancoding.com/sketch -->
    <title>出差</title>
    <desc>Created with Sketch.</desc>
    <defs></defs>
    <g id="Symbols" stroke="none" stroke-width="1" fill="none" fill-rule="evenodd">
        <g id="外出详细" transform="translate(-40.000000, -749.000000)" fill="#0E87EF">
            <g id="Group-3">
                <g id="Group-2-Copy" transform="translate(40.000000, 375.000000)">
                    <path d="M8,390 C12.4182711,390 16,386.418271 16,382 C16,377.581729 12.4182711,374 8,374 C3.58172886,374 0,377.58171 0,382 C0,386.41829 3.58171039,390 8,390 Z M8,374.56224 C12.1077571,374.56224 15.4377602,377.892243 15.4377602,382 C15.4377602,386.107757 12.1077571,389.43776 8,389.43776 C3.89224291,389.43776 0.562239755,386.107757 0.562239755,382 C0.562239755,377.892243 3.89222444,374.56224 8,374.56224 Z M3.33362431,383.095658 L2.94760178,383.491546 L5.01260244,384.899067 L6.16279955,386.756794 L6.55041095,386.362291 L6.27627474,384.370101 L8.44484783,382.319179 L10.0314311,386.755519 L10.8541354,385.917536 L9.99800929,380.973495 L11.7580939,379.216219 C12.5385637,378.420082 12.6099152,377.790555 12.2613975,377.438102 C11.9170552,377.086832 11.3186224,377.179171 10.5351227,377.972389 L8.78619712,379.722663 L3.80215744,378.754447 L2.97991506,379.592412 L7.45285455,381.250347 L5.42408391,383.506807 L3.33362431,383.095658 Z" id="出差"></path>
                </g>
            </g>
        </g>
    </g>
</svg>