<?xml version="1.0" encoding="UTF-8"?>
<svg width="24px" height="24px" viewBox="0 0 24 24" version="1.1" xmlns="http://www.w3.org/2000/svg" xmlns:xlink="http://www.w3.org/1999/xlink">
    <!-- Generator: Sketch 41.2 (35397) - http://www.bohemiancoding.com/sketch -->
    <title>机构</title>
    <desc>Created with Sketch.</desc>
    <defs></defs>
    <g id="Symbols" stroke="none" stroke-width="1" fill="none" fill-rule="evenodd">
        <g id="统计标题（月）" transform="translate(-20.000000, -18.000000)" fill="#FFFFFF">
            <g id="topic">
                <path d="M40.5724864,34.184071 C38.6779893,34.184071 37.1424954,35.7730768 37.1424954,37.7304999 C37.1424954,39.6904004 38.6779893,41.2793512 40.5724864,41.2793512 C42.4645336,41.2793512 44,39.6904004 44,37.7304999 C43.9999725,35.7730768 42.4645336,34.184071 40.5724864,34.184071 Z M23.4274861,34.1697296 C21.5354664,34.1697296 20,35.7563131 20,37.716131 C20,39.6760315 21.5354664,41.2649822 23.4274861,41.2649822 C25.3220382,41.2649822 26.8574771,39.6760315 26.8574771,37.716131 C26.8574771,35.7563131 25.3220382,34.1697296 23.4274861,34.1697296 Z M31.7137362,34.0727806 C29.8204778,34.0727806 28.2862501,35.6605477 28.2862501,37.6204207 C28.2862501,39.5802661 29.8204503,41.1680883 31.7137362,41.1680883 C33.607022,41.1680883 35.1412222,39.5802661 35.1412222,37.6204207 C35.1412222,35.6605477 33.607022,34.0727806 31.7137362,34.0727806 Z M23.8254945,30.0918428 C23.8254945,29.7017621 24.0954213,29.3847096 24.4256315,29.3847096 L30.9529259,29.3847096 L30.9529259,32.5297443 L32.6026281,32.5297443 L32.6026281,29.3847096 L39.1462734,29.3847096 C39.4714462,29.3847096 39.747649,29.7090016 39.747649,30.0918428 L39.747649,32.5297443 L41.3974063,32.5297443 L41.3974063,30.0918428 C41.3974063,28.8343134 40.3879749,27.812495 39.1463009,27.812495 L32.6026556,27.812495 L32.6026556,24.9744931 C34.0648185,24.5691075 35.1412773,23.1880108 35.1412773,21.5464289 C35.1412773,19.5889232 33.6070771,18 31.7137912,18 C29.8205053,18 28.2863051,19.5889508 28.2863051,21.5464289 C28.2863051,23.2355769 29.4259928,24.6490725 30.9529534,25.0073599 L30.9529534,27.812495 L24.4256039,27.812495 C23.1851686,27.812495 22.1757648,28.8343134 22.1757648,30.0918428 L22.1757648,32.5297443 L23.825467,32.5297443 L23.825467,30.0918428 L23.8254945,30.0918428 Z" id="机构"></path>
            </g>
        </g>
    </g>
</svg>