<?xml version="1.0" encoding="UTF-8"?>
<svg width="22px" height="24px" viewBox="0 0 22 24" version="1.1" xmlns="http://www.w3.org/2000/svg" xmlns:xlink="http://www.w3.org/1999/xlink">
    <!-- Generator: Sketch 41.2 (35397) - http://www.bohemiancoding.com/sketch -->
    <title>Shape</title>
    <desc>Created with Sketch.</desc>
    <defs></defs>
    <g id="Symbols" stroke="none" stroke-width="1" fill="none" fill-rule="evenodd">
        <g id="统计标题（月）" transform="translate(-332.000000, -18.000000)" fill="#FFFFFF">
            <g id="topic">
                <path d="M353.262829,20.6627843 L351.403351,20.6627843 L350.706002,18.7964992 L350.008685,20.6627843 L348.149175,20.6627843 L349.660044,21.8293836 L348.96256,23.9288751 L350.705968,22.6457728 L352.449176,23.9288751 L351.75196,21.8293836 L353.262829,20.6627843 L353.262829,20.6627843 Z M348.654333,26.7397995 L347.319737,26.7397995 L346.819284,25.4002978 L346.318798,26.7397995 L344.984336,26.7397995 L346.068639,27.5769463 L345.568053,29.0838106 L346.819251,28.1629324 L348.070349,29.0838106 L347.569863,27.5769463 L348.654333,26.7397995 L348.654333,26.7397995 Z M353.20733,33.4373078 L352.195813,33.4373078 L351.816535,32.4220191 L351.437158,33.4373078 L350.425673,33.4373078 L351.247536,34.0717507 L350.868158,35.2138212 L351.816569,34.5158039 L352.764779,35.2138212 L352.385501,34.0717507 L353.20733,33.4373078 L353.20733,33.4373078 Z M342.845131,18 C336.763244,18.5662964 332,23.7065481 332,29.9717169 C332,36.6151619 337.354569,42 343.958802,42 C347.697546,42 351.550357,40.272177 353.743291,37.5694125 C353.376462,37.603953 352.487921,37.6263792 352.112615,37.6263792 C345.508383,37.6263792 340.153813,32.2409071 340.153813,25.5975955 C340.153813,22.715154 341.163996,20.0724598 342.845131,18 L342.845131,18 Z" id="Shape"></path>
            </g>
        </g>
    </g>
</svg>