<?xml version="1.0" encoding="UTF-8"?>
<svg width="20px" height="24px" viewBox="0 0 20 24" version="1.1" xmlns="http://www.w3.org/2000/svg" xmlns:xlink="http://www.w3.org/1999/xlink">
    <!-- Generator: Sketch 41.2 (35397) - http://www.bohemiancoding.com/sketch -->
    <title>签到-noraml</title>
    <desc>Created with Sketch.</desc>
    <defs></defs>
    <g id="Symbols" stroke="none" stroke-width="1" fill="none" fill-rule="evenodd">
        <g id="nav3" transform="translate(-53.000000, -8.000000)" fill="#7F8389">
            <g id="downnav">
                <path d="M62.8823529,32 C62.8823529,32 53,23.3402353 53,17.8823529 C53,12.4244706 57.4244706,8 62.8823529,8 C68.3402353,8 72.7647059,12.4244706 72.7647059,17.8823529 C72.7647059,23.3402353 62.8823529,32 62.8823529,32 Z M62.8823529,12.2352941 C59.7637647,12.2352941 57.2352941,14.7637647 57.2352941,17.8823529 C57.2352941,21.0009412 59.7637647,23.5294118 62.8823529,23.5294118 C66.0009412,23.5294118 68.5294118,21.0009412 68.5294118,17.8823529 C68.5294118,14.7637647 66.0009412,12.2352941 62.8823529,12.2352941 Z M62.8823529,20 C61.7127059,20 60.7647059,19.052 60.7647059,17.8823529 C60.7647059,16.7127059 61.7127059,15.7647059 62.8823529,15.7647059 C64.052,15.7647059 65,16.7127059 65,17.8823529 C65,19.052 64.052,20 62.8823529,20 Z" id="签到-noraml"></path>
            </g>
        </g>
    </g>
</svg>