<?xml version="1.0" encoding="UTF-8"?>
<svg width="24px" height="24px" viewBox="0 0 24 24" version="1.1" xmlns="http://www.w3.org/2000/svg" xmlns:xlink="http://www.w3.org/1999/xlink">
    <!-- Generator: Sketch 41.2 (35397) - http://www.bohemiancoding.com/sketch -->
    <title>统计-select</title>
    <desc>Created with Sketch.</desc>
    <defs></defs>
    <g id="Symbols" stroke="none" stroke-width="1" fill="none" fill-rule="evenodd">
        <g id="nav2" transform="translate(-176.000000, -8.000000)" fill="#0E87EF">
            <g id="downnav">
                <path d="M186.846064,21.3019277 L186.846064,10.3812011 L186.830065,10.3812011 C180.847731,10.3812011 176,15.2209322 176,21.1899339 C176,27.1589356 180.847731,31.9986667 186.822065,31.9986667 C189.829898,31.9986667 192.548414,30.7720682 194.509638,28.7935115 L186.846064,21.3019277 Z M196.221543,28.0935503 L188.073996,19.8940059 L196.296206,11.7411255 L196.76418,12.1997667 C198.850731,14.2463196 200,16.9768346 200,19.8873396 C200,22.836509 198.826732,25.5910227 196.69485,27.6402422 L196.221543,28.0935503 Z M189.957891,19.9006722 L196.226876,26.209655 C197.806789,24.4724182 198.668074,22.2525415 198.668074,19.8873396 C198.668074,17.5568024 197.826787,15.3582579 196.28554,13.6276874 L189.957891,19.9006722 Z M188.677962,8 L188.677962,8 L188.677962,18.0194434 L195.770902,10.9331704 C193.955003,9.11993779 191.447142,8 188.677962,8 Z" id="统计-select"></path>
            </g>
        </g>
    </g>
</svg>